<mxfile host="app.diagrams.net" modified="2023-05-18T19:32:08.718Z" agent="Mozilla/5.0 (Windows NT 10.0; Win64; x64; rv:109.0) Gecko/20100101 Firefox/112.0" etag="tzVqUhRRBWpHyLv14-rD" version="21.3.2" type="device">
  <diagram name="Page-1" id="I2gKuHOCCtUCHzMTMHLt">
    <mxGraphModel dx="1434" dy="739" grid="1" gridSize="10" guides="1" tooltips="1" connect="1" arrows="1" fold="1" page="1" pageScale="1" pageWidth="827" pageHeight="1169" math="0" shadow="0">
      <root>
        <mxCell id="0" />
        <mxCell id="1" parent="0" />
        <mxCell id="TcnP27nnTozr-PaMKJBG-20" style="edgeStyle=orthogonalEdgeStyle;rounded=0;orthogonalLoop=1;jettySize=auto;html=1;exitX=0.5;exitY=1;exitDx=0;exitDy=0;entryX=0.5;entryY=0;entryDx=0;entryDy=0;" parent="1" source="TcnP27nnTozr-PaMKJBG-9" target="TcnP27nnTozr-PaMKJBG-11" edge="1">
          <mxGeometry relative="1" as="geometry" />
        </mxCell>
        <mxCell id="TcnP27nnTozr-PaMKJBG-9" value="Start Game" style="rounded=0;whiteSpace=wrap;html=1;" parent="1" vertex="1">
          <mxGeometry x="340" y="270" width="120" height="60" as="geometry" />
        </mxCell>
        <mxCell id="TcnP27nnTozr-PaMKJBG-10" value="Exit Game" style="rounded=0;whiteSpace=wrap;html=1;" parent="1" vertex="1">
          <mxGeometry x="570" y="330" width="120" height="60" as="geometry" />
        </mxCell>
        <mxCell id="TcnP27nnTozr-PaMKJBG-21" value="Exit" style="edgeStyle=orthogonalEdgeStyle;rounded=0;orthogonalLoop=1;jettySize=auto;html=1;exitX=1;exitY=0.25;exitDx=0;exitDy=0;" parent="1" source="TcnP27nnTozr-PaMKJBG-11" edge="1">
          <mxGeometry x="0.1429" relative="1" as="geometry">
            <mxPoint x="570" y="375" as="targetPoint" />
            <Array as="points">
              <mxPoint x="570" y="375" />
            </Array>
            <mxPoint as="offset" />
          </mxGeometry>
        </mxCell>
        <mxCell id="TcnP27nnTozr-PaMKJBG-22" value="Play" style="edgeStyle=orthogonalEdgeStyle;rounded=0;orthogonalLoop=1;jettySize=auto;html=1;exitX=0.5;exitY=1;exitDx=0;exitDy=0;entryX=0.5;entryY=0;entryDx=0;entryDy=0;" parent="1" source="TcnP27nnTozr-PaMKJBG-11" target="TcnP27nnTozr-PaMKJBG-12" edge="1">
          <mxGeometry relative="1" as="geometry" />
        </mxCell>
        <mxCell id="TcnP27nnTozr-PaMKJBG-11" value="Main Menu" style="rounded=0;whiteSpace=wrap;html=1;" parent="1" vertex="1">
          <mxGeometry x="340" y="360" width="120" height="60" as="geometry" />
        </mxCell>
        <mxCell id="TcnP27nnTozr-PaMKJBG-12" value="Difficulty Select" style="rounded=0;whiteSpace=wrap;html=1;" parent="1" vertex="1">
          <mxGeometry x="340" y="460" width="120" height="60" as="geometry" />
        </mxCell>
        <mxCell id="TcnP27nnTozr-PaMKJBG-24" style="edgeStyle=orthogonalEdgeStyle;rounded=0;orthogonalLoop=1;jettySize=auto;html=1;exitX=0.5;exitY=1;exitDx=0;exitDy=0;entryX=0.5;entryY=0;entryDx=0;entryDy=0;" parent="1" source="TcnP27nnTozr-PaMKJBG-13" target="TcnP27nnTozr-PaMKJBG-15" edge="1">
          <mxGeometry relative="1" as="geometry" />
        </mxCell>
        <mxCell id="TcnP27nnTozr-PaMKJBG-13" value="Display a&lt;br&gt;blank word&amp;nbsp;&lt;br&gt;and letter Buttons" style="rounded=0;whiteSpace=wrap;html=1;" parent="1" vertex="1">
          <mxGeometry x="340" y="640" width="120" height="60" as="geometry" />
        </mxCell>
        <mxCell id="TcnP27nnTozr-PaMKJBG-26" value="Correct" style="edgeStyle=orthogonalEdgeStyle;rounded=0;orthogonalLoop=1;jettySize=auto;html=1;exitX=1;exitY=0.5;exitDx=0;exitDy=0;entryX=0;entryY=0.5;entryDx=0;entryDy=0;" parent="1" source="TcnP27nnTozr-PaMKJBG-14" target="TcnP27nnTozr-PaMKJBG-16" edge="1">
          <mxGeometry relative="1" as="geometry" />
        </mxCell>
        <mxCell id="TcnP27nnTozr-PaMKJBG-35" value="Wrong" style="edgeStyle=orthogonalEdgeStyle;rounded=0;orthogonalLoop=1;jettySize=auto;html=1;exitX=0;exitY=0.5;exitDx=0;exitDy=0;entryX=1;entryY=0.5;entryDx=0;entryDy=0;" parent="1" source="TcnP27nnTozr-PaMKJBG-14" target="TcnP27nnTozr-PaMKJBG-17" edge="1">
          <mxGeometry relative="1" as="geometry" />
        </mxCell>
        <mxCell id="TcnP27nnTozr-PaMKJBG-14" value="Check Letter Choice" style="rounded=0;whiteSpace=wrap;html=1;" parent="1" vertex="1">
          <mxGeometry x="340" y="840" width="120" height="60" as="geometry" />
        </mxCell>
        <mxCell id="TcnP27nnTozr-PaMKJBG-25" style="edgeStyle=orthogonalEdgeStyle;rounded=0;orthogonalLoop=1;jettySize=auto;html=1;exitX=0.5;exitY=1;exitDx=0;exitDy=0;entryX=0.5;entryY=0;entryDx=0;entryDy=0;" parent="1" source="TcnP27nnTozr-PaMKJBG-15" target="TcnP27nnTozr-PaMKJBG-14" edge="1">
          <mxGeometry relative="1" as="geometry" />
        </mxCell>
        <mxCell id="TcnP27nnTozr-PaMKJBG-15" value="User Input" style="rounded=0;whiteSpace=wrap;html=1;" parent="1" vertex="1">
          <mxGeometry x="340" y="740" width="120" height="60" as="geometry" />
        </mxCell>
        <mxCell id="TcnP27nnTozr-PaMKJBG-27" style="edgeStyle=orthogonalEdgeStyle;rounded=0;orthogonalLoop=1;jettySize=auto;html=1;exitX=0.5;exitY=0;exitDx=0;exitDy=0;entryX=0.5;entryY=1;entryDx=0;entryDy=0;" parent="1" source="TcnP27nnTozr-PaMKJBG-16" target="TcnP27nnTozr-PaMKJBG-19" edge="1">
          <mxGeometry relative="1" as="geometry" />
        </mxCell>
        <mxCell id="TcnP27nnTozr-PaMKJBG-16" value="Add to word&amp;nbsp;&lt;br&gt;and&lt;br&gt;&amp;nbsp;Fade used letter" style="rounded=0;whiteSpace=wrap;html=1;" parent="1" vertex="1">
          <mxGeometry x="570" y="840" width="120" height="60" as="geometry" />
        </mxCell>
        <mxCell id="TcnP27nnTozr-PaMKJBG-37" style="edgeStyle=orthogonalEdgeStyle;rounded=0;orthogonalLoop=1;jettySize=auto;html=1;exitX=0.5;exitY=0;exitDx=0;exitDy=0;" parent="1" source="TcnP27nnTozr-PaMKJBG-17" target="TcnP27nnTozr-PaMKJBG-18" edge="1">
          <mxGeometry relative="1" as="geometry" />
        </mxCell>
        <mxCell id="TcnP27nnTozr-PaMKJBG-17" value="-1 Guesses&lt;br&gt;and&lt;br&gt;&amp;nbsp;Fade used letter" style="rounded=0;whiteSpace=wrap;html=1;" parent="1" vertex="1">
          <mxGeometry x="110" y="840" width="120" height="60" as="geometry" />
        </mxCell>
        <mxCell id="TcnP27nnTozr-PaMKJBG-38" style="edgeStyle=orthogonalEdgeStyle;rounded=0;orthogonalLoop=1;jettySize=auto;html=1;exitX=1;exitY=0.5;exitDx=0;exitDy=0;entryX=0;entryY=0.5;entryDx=0;entryDy=0;" parent="1" source="TcnP27nnTozr-PaMKJBG-18" target="TcnP27nnTozr-PaMKJBG-15" edge="1">
          <mxGeometry relative="1" as="geometry" />
        </mxCell>
        <mxCell id="TcnP27nnTozr-PaMKJBG-39" value="More Guesses" style="edgeLabel;html=1;align=center;verticalAlign=middle;resizable=0;points=[];" parent="TcnP27nnTozr-PaMKJBG-38" vertex="1" connectable="0">
          <mxGeometry x="-0.0545" y="2" relative="1" as="geometry">
            <mxPoint as="offset" />
          </mxGeometry>
        </mxCell>
        <mxCell id="TcnP27nnTozr-PaMKJBG-42" style="edgeStyle=orthogonalEdgeStyle;rounded=0;orthogonalLoop=1;jettySize=auto;html=1;entryX=0.5;entryY=1;entryDx=0;entryDy=0;exitX=0.5;exitY=0;exitDx=0;exitDy=0;" parent="1" source="TcnP27nnTozr-PaMKJBG-18" target="TcnP27nnTozr-PaMKJBG-41" edge="1">
          <mxGeometry relative="1" as="geometry">
            <mxPoint x="60" y="710" as="sourcePoint" />
          </mxGeometry>
        </mxCell>
        <mxCell id="TcnP27nnTozr-PaMKJBG-57" value="No more guesses" style="edgeLabel;html=1;align=center;verticalAlign=middle;resizable=0;points=[];" parent="TcnP27nnTozr-PaMKJBG-42" vertex="1" connectable="0">
          <mxGeometry x="0.1" y="2" relative="1" as="geometry">
            <mxPoint x="2" y="5" as="offset" />
          </mxGeometry>
        </mxCell>
        <mxCell id="TcnP27nnTozr-PaMKJBG-18" value="Check if all guesses used" style="rounded=0;whiteSpace=wrap;html=1;" parent="1" vertex="1">
          <mxGeometry x="110" y="740" width="120" height="60" as="geometry" />
        </mxCell>
        <mxCell id="TcnP27nnTozr-PaMKJBG-29" style="edgeStyle=orthogonalEdgeStyle;rounded=0;orthogonalLoop=1;jettySize=auto;html=1;exitX=0;exitY=0.5;exitDx=0;exitDy=0;entryX=1;entryY=0.5;entryDx=0;entryDy=0;" parent="1" source="TcnP27nnTozr-PaMKJBG-19" target="TcnP27nnTozr-PaMKJBG-15" edge="1">
          <mxGeometry relative="1" as="geometry" />
        </mxCell>
        <mxCell id="TcnP27nnTozr-PaMKJBG-30" value="Word Incomplete" style="edgeLabel;html=1;align=center;verticalAlign=middle;resizable=0;points=[];" parent="TcnP27nnTozr-PaMKJBG-29" vertex="1" connectable="0">
          <mxGeometry x="0.0581" y="4" relative="1" as="geometry">
            <mxPoint x="8" y="-4" as="offset" />
          </mxGeometry>
        </mxCell>
        <mxCell id="TcnP27nnTozr-PaMKJBG-47" style="edgeStyle=orthogonalEdgeStyle;rounded=0;orthogonalLoop=1;jettySize=auto;html=1;entryX=0.5;entryY=1;entryDx=0;entryDy=0;" parent="1" source="TcnP27nnTozr-PaMKJBG-19" target="TcnP27nnTozr-PaMKJBG-43" edge="1">
          <mxGeometry relative="1" as="geometry" />
        </mxCell>
        <mxCell id="TcnP27nnTozr-PaMKJBG-58" value="Word complete" style="edgeLabel;html=1;align=center;verticalAlign=middle;resizable=0;points=[];" parent="TcnP27nnTozr-PaMKJBG-47" vertex="1" connectable="0">
          <mxGeometry x="0.0143" y="2" relative="1" as="geometry">
            <mxPoint as="offset" />
          </mxGeometry>
        </mxCell>
        <mxCell id="TcnP27nnTozr-PaMKJBG-19" value="Check if word completed" style="rounded=0;whiteSpace=wrap;html=1;" parent="1" vertex="1">
          <mxGeometry x="570" y="740" width="120" height="60" as="geometry" />
        </mxCell>
        <mxCell id="TcnP27nnTozr-PaMKJBG-32" value="" style="edgeStyle=orthogonalEdgeStyle;rounded=0;orthogonalLoop=1;jettySize=auto;html=1;exitX=0.5;exitY=1;exitDx=0;exitDy=0;entryX=0.5;entryY=0;entryDx=0;entryDy=0;" parent="1" source="TcnP27nnTozr-PaMKJBG-12" target="TcnP27nnTozr-PaMKJBG-31" edge="1">
          <mxGeometry relative="1" as="geometry">
            <mxPoint x="400" y="520" as="sourcePoint" />
            <mxPoint x="400" y="640" as="targetPoint" />
          </mxGeometry>
        </mxCell>
        <mxCell id="TcnP27nnTozr-PaMKJBG-34" style="edgeStyle=orthogonalEdgeStyle;rounded=0;orthogonalLoop=1;jettySize=auto;html=1;exitX=0.5;exitY=1;exitDx=0;exitDy=0;entryX=0.5;entryY=0;entryDx=0;entryDy=0;" parent="1" source="TcnP27nnTozr-PaMKJBG-31" target="TcnP27nnTozr-PaMKJBG-13" edge="1">
          <mxGeometry relative="1" as="geometry" />
        </mxCell>
        <mxCell id="TcnP27nnTozr-PaMKJBG-31" value="Load correct dictionary" style="rounded=0;whiteSpace=wrap;html=1;" parent="1" vertex="1">
          <mxGeometry x="340" y="550" width="120" height="60" as="geometry" />
        </mxCell>
        <mxCell id="TcnP27nnTozr-PaMKJBG-41" value="Show Fail Screen" style="rounded=0;whiteSpace=wrap;html=1;" parent="1" vertex="1">
          <mxGeometry x="110" y="580" width="120" height="60" as="geometry" />
        </mxCell>
        <mxCell id="TcnP27nnTozr-PaMKJBG-43" value="Show Win Screen" style="rounded=0;whiteSpace=wrap;html=1;" parent="1" vertex="1">
          <mxGeometry x="570" y="580" width="120" height="60" as="geometry" />
        </mxCell>
        <mxCell id="TcnP27nnTozr-PaMKJBG-50" style="edgeStyle=orthogonalEdgeStyle;rounded=0;orthogonalLoop=1;jettySize=auto;html=1;exitX=0.5;exitY=0;exitDx=0;exitDy=0;entryX=0;entryY=0.5;entryDx=0;entryDy=0;" parent="1" source="TcnP27nnTozr-PaMKJBG-41" target="TcnP27nnTozr-PaMKJBG-11" edge="1">
          <mxGeometry relative="1" as="geometry">
            <Array as="points">
              <mxPoint x="170" y="390" />
            </Array>
            <mxPoint x="160" y="1040" as="sourcePoint" />
          </mxGeometry>
        </mxCell>
        <mxCell id="TcnP27nnTozr-PaMKJBG-52" value="Main Menu" style="edgeLabel;html=1;align=center;verticalAlign=middle;resizable=0;points=[];" parent="TcnP27nnTozr-PaMKJBG-50" vertex="1" connectable="0">
          <mxGeometry x="-0.9044" y="2" relative="1" as="geometry">
            <mxPoint x="2" y="-43" as="offset" />
          </mxGeometry>
        </mxCell>
        <mxCell id="TcnP27nnTozr-PaMKJBG-51" style="edgeStyle=orthogonalEdgeStyle;rounded=0;orthogonalLoop=1;jettySize=auto;html=1;exitX=0.5;exitY=0;exitDx=0;exitDy=0;entryX=1;entryY=0.75;entryDx=0;entryDy=0;" parent="1" source="TcnP27nnTozr-PaMKJBG-43" target="TcnP27nnTozr-PaMKJBG-11" edge="1">
          <mxGeometry relative="1" as="geometry">
            <Array as="points">
              <mxPoint x="630" y="405" />
            </Array>
            <mxPoint x="630" y="520" as="sourcePoint" />
            <mxPoint x="500" y="410" as="targetPoint" />
          </mxGeometry>
        </mxCell>
        <mxCell id="TcnP27nnTozr-PaMKJBG-53" value="Main Menu" style="edgeLabel;html=1;align=center;verticalAlign=middle;resizable=0;points=[];" parent="TcnP27nnTozr-PaMKJBG-51" vertex="1" connectable="0">
          <mxGeometry x="-0.9" y="3" relative="1" as="geometry">
            <mxPoint x="3" y="-40" as="offset" />
          </mxGeometry>
        </mxCell>
      </root>
    </mxGraphModel>
  </diagram>
</mxfile>
